<svg xmlns="http://www.w3.org/2000/svg" viewBox="0 0 1080 340" font-family="ui-monospace, SFMono-Regular, Menlo, monospace" font-size="13">
  <defs>
    <marker id="arrow" viewBox="0 0 10 10" refX="9" refY="5" markerWidth="7" markerHeight="7" orient="auto-start-reverse">
      <path d="M 0 0 L 10 5 L 0 10 z" fill="#7d8590"/>
    </marker>
  </defs>
  <rect x="12" y="120" width="152" height="30" rx="15" fill="#dbeafe" stroke="#3b82f6"/>
  <text x="88" y="139" text-anchor="middle" fill="#1e3a8a">tower_leaving_temp</text>
  <rect x="12" y="180" width="90" height="30" rx="15" fill="#dbeafe" stroke="#3b82f6"/>
  <text x="57" y="199" text-anchor="middle" fill="#1e3a8a">oa_wetbulb</text>
  <rect x="12" y="264" width="130" height="30" rx="15" fill="#dbeafe" stroke="#3b82f6"/>
  <text x="77" y="283" text-anchor="middle" fill="#1e3a8a">tower_fan_speed</text>
  <rect x="214" y="130" width="108" height="58" rx="6" fill="#f6f8fa" stroke="#57606a"/>
  <text x="268" y="152" text-anchor="middle" fill="#24292f" font-weight="bold">approach</text>
  <text x="268" y="170" text-anchor="middle" fill="#57606a" font-size="11">Reals.Subtract</text>
  <rect x="370" y="20" width="232" height="58" rx="6" fill="#f6f8fa" stroke="#57606a"/>
  <text x="486" y="42" text-anchor="middle" fill="#24292f" font-weight="bold">wbOk</text>
  <text x="486" y="60" text-anchor="middle" fill="#57606a" font-size="11">Reals.GreaterThreshold · t = 0 °C</text>
  <rect x="370" y="130" width="232" height="58" rx="6" fill="#f6f8fa" stroke="#57606a"/>
  <text x="486" y="152" text-anchor="middle" fill="#24292f" font-weight="bold">appHigh</text>
  <text x="486" y="170" text-anchor="middle" fill="#57606a" font-size="11">Reals.GreaterThreshold · t = 5 °C</text>
  <rect x="370" y="250" width="232" height="58" rx="6" fill="#f6f8fa" stroke="#57606a"/>
  <text x="486" y="272" text-anchor="middle" fill="#24292f" font-weight="bold">fanMax</text>
  <text x="486" y="290" text-anchor="middle" fill="#57606a" font-size="11">Reals.GreaterThreshold · t = 95 %</text>
  <rect x="650" y="175" width="88" height="58" rx="6" fill="#f6f8fa" stroke="#57606a"/>
  <text x="694" y="197" text-anchor="middle" fill="#24292f" font-weight="bold">gate</text>
  <text x="694" y="215" text-anchor="middle" fill="#57606a" font-size="11">Logical.And</text>
  <rect x="786" y="175" width="134" height="58" rx="6" fill="#f6f8fa" stroke="#57606a"/>
  <text x="853" y="197" text-anchor="middle" fill="#24292f" font-weight="bold">persist</text>
  <text x="853" y="215" text-anchor="middle" fill="#57606a" font-size="11">TrueDelay · 1800 s</text>
  <rect x="968" y="189" width="62" height="30" rx="15" fill="#fee2e2" stroke="#dc2626"/>
  <text x="999" y="208" text-anchor="middle" fill="#7f1d1d">yFault</text>
  <rect x="968" y="34" width="92" height="30" rx="15" fill="#fef3c7" stroke="#d97706"/>
  <text x="1014" y="53" text-anchor="middle" fill="#78350f">yWetBulbOk</text>
  <g stroke="#7d8590" stroke-width="1.5" fill="none" marker-end="url(#arrow)">
    <path d="M 164 135 H 186 V 145 H 210"/>
    <path d="M 102 195 H 186 V 173 H 210"/>
    <path d="M 322 159 H 366"/>
    <path d="M 322 159 H 344 V 49 H 366"/>
    <path d="M 142 279 H 366"/>
    <path d="M 602 159 H 624 V 194 H 646"/>
    <path d="M 602 279 H 624 V 214 H 646"/>
    <path d="M 738 204 H 782"/>
    <path d="M 920 204 H 964"/>
    <path d="M 602 49 H 964"/>
  </g>
  <text x="170" y="128" fill="#7d8590" font-size="10">Real</text>
  <text x="108" y="188" fill="#7d8590" font-size="10">Real</text>
  <text x="148" y="272" fill="#7d8590" font-size="10">Real</text>
  <text x="328" y="152" fill="#7d8590" font-size="10">Real</text>
  <text x="608" y="152" fill="#7d8590" font-size="10">Bool</text>
  <text x="608" y="272" fill="#7d8590" font-size="10">Bool</text>
  <text x="968" y="84" fill="#7d8590" font-size="11">false ⇒ NO_EVAL</text>
</svg>
