<svg xmlns="http://www.w3.org/2000/svg" width="1800" height="430" viewBox="0 0 1800 430">
<rect width="100%" height="100%" fill="#ffffff"/>
<defs><marker id="arrow" markerWidth="8" markerHeight="8" refX="7" refY="3" orient="auto"><path d="M0,0 L0,6 L8,3 z" fill="#718096"/></marker></defs>
<style>.title{font:700 20px monospace;fill:#172033}.port{font:600 12px monospace;fill:#172033}.inst{font:700 11px monospace;fill:#172033}.cls{font:9px monospace;fill:#4b5563}.wire{stroke:#718096;stroke-width:2;fill:none;marker-end:url(#arrow)}.in{fill:#dbeafe;stroke:#2563eb;stroke-width:1.5}.out{fill:#fee2e2;stroke:#dc2626;stroke-width:1.5}.blk{fill:#f8fafc;stroke:#64748b;stroke-width:1.5}.note{font:11px monospace;fill:#4b5563}</style>
<text x="24" y="30" class="title">HX-0003 block graph</text>
<path d="M220 119 H300" class="wire"/>
<path d="M220 299 H300" class="wire"/>
<path d="M500 299 H580" class="wire"/>
<path d="M780 299 H840 V233 H900" class="wire"/>
<path d="M500 119 H840 V209 H900" class="wire"/>
<path d="M1090 221 H1180" class="wire"/>
<path d="M1380 221 H1580 V299 H1620" class="wire"/>
<path d="M500 119 H1540 V119 H1620" class="wire"/>
<path d="M780 299 H1540 V209 H1620" class="wire"/>
<rect x="20" y="102" width="200" height="34" rx="17" class="in"/>
<text x="120" y="124" text-anchor="middle" class="port">control_valve_cmd</text>
<rect x="20" y="282" width="200" height="34" rx="17" class="in"/>
<text x="120" y="304" text-anchor="middle" class="port">heat_transfer_rate</text>
<rect x="300" y="92" width="200" height="54" rx="8" class="blk"/>
<text x="312" y="111" class="inst">valveClosed</text>
<text x="312" y="130" class="cls">LessThreshold · 5%</text>
<rect x="300" y="272" width="200" height="54" rx="8" class="blk"/>
<text x="312" y="291" class="inst">absTransfer</text>
<text x="312" y="310" class="cls">Reals.Abs</text>
<rect x="580" y="272" width="200" height="54" rx="8" class="blk"/>
<text x="592" y="291" class="inst">transferHigh</text>
<text x="592" y="310" class="cls">GreaterThreshold · 5 kW</text>
<rect x="900" y="194" width="190" height="54" rx="8" class="blk"/>
<text x="912" y="213" class="inst">candidate</text>
<text x="912" y="232" class="cls">Logical.And</text>
<rect x="1180" y="194" width="200" height="54" rx="8" class="blk"/>
<text x="1192" y="213" class="inst">persist</text>
<text x="1192" y="232" class="cls">TrueDelay · 900 s</text>
<rect x="1620" y="102" width="160" height="34" rx="17" class="out"/>
<text x="1700" y="124" text-anchor="middle" class="port">yValveClosed</text>
<rect x="1620" y="192" width="160" height="34" rx="17" class="out"/>
<text x="1700" y="214" text-anchor="middle" class="port">yTransferPresent</text>
<rect x="1620" y="282" width="160" height="34" rx="17" class="out"/>
<text x="1700" y="304" text-anchor="middle" class="port">yFault</text>
<text x="900" y="406" text-anchor="middle" class="note">Thermal-soak exclusion, derivation validity, side balance, valve/path identity, and point validity are host-side.</text>
</svg>
